<svg width="127" height="127" viewBox="0 0 127 127" fill="none" xmlns="http://www.w3.org/2000/svg">
<circle cx="63.8711" cy="63.5" r="63" fill="#FEF6E7"/>
<path d="M61.3165 74.114L60.6265 39.2H66.9055L66.2155 74.114H61.3165ZM63.9385 87.845C62.7885 87.845 61.8225 87.477 61.0405 86.741C60.3045 85.959 59.9365 85.016 59.9365 83.912C59.9365 82.808 60.3045 81.888 61.0405 81.152C61.8225 80.37 62.7885 79.979 63.9385 79.979C65.0425 79.979 65.9625 80.37 66.6985 81.152C67.4805 81.888 67.8715 82.808 67.8715 83.912C67.8715 85.016 67.4805 85.959 66.6985 86.741C65.9625 87.477 65.0425 87.845 63.9385 87.845Z" fill="#F5A30A"/>
</svg>
